<svg width="32" height="32" viewBox="0 0 32 32" fill="none" xmlns="http://www.w3.org/2000/svg">
<path d="M17.4125 16L25.7125 7.71249C25.872 7.5182 25.9535 7.27153 25.9411 7.02048C25.9288 6.76943 25.8235 6.53194 25.6458 6.3542C25.4681 6.17647 25.2306 6.0712 24.9795 6.05887C24.7285 6.04654 24.4818 6.12803 24.2875 6.28749L16 14.5875L7.71249 6.28749C7.5182 6.12803 7.27154 6.04654 7.02048 6.05887C6.76943 6.0712 6.53194 6.17647 6.35421 6.3542C6.17647 6.53194 6.0712 6.76943 6.05887 7.02048C6.04654 7.27153 6.12803 7.5182 6.28749 7.71249L14.5875 16L6.28749 24.2875C6.09971 24.4771 5.99437 24.7331 5.99437 25C5.99437 25.2668 6.09971 25.5229 6.28749 25.7125C6.47863 25.8973 6.73411 26.0006 6.99999 26.0006C7.26588 26.0006 7.52135 25.8973 7.71249 25.7125L16 17.4125L24.2875 25.7125C24.4786 25.8973 24.7341 26.0006 25 26.0006C25.2659 26.0006 25.5214 25.8973 25.7125 25.7125C25.9003 25.5229 26.0056 25.2668 26.0056 25C26.0056 24.7331 25.9003 24.4771 25.7125 24.2875L17.4125 16Z" fill="white"/>
</svg>
