<svg width="22" height="20" viewBox="0 0 22 20" fill="none" xmlns="http://www.w3.org/2000/svg">
<path d="M15.875 0.25C14.929 0.25 13.9959 0.470259 13.1498 0.893334C12.3036 1.31641 11.5676 1.93068 11 2.6875C10.2326 1.66432 9.16275 0.908531 7.94196 0.527183C6.72116 0.145835 5.41133 0.158265 4.19799 0.562711C2.98465 0.967158 1.92932 1.74312 1.18149 2.78067C0.433665 3.81823 0.03125 5.06478 0.03125 6.34375C0.03125 13.6461 10.1773 19.4047 10.6039 19.6484C10.7248 19.7164 10.8614 19.7514 11 19.75C11.1388 19.7524 11.2756 19.7173 11.3961 19.6484C13.2645 18.5561 15.017 17.2766 16.6266 15.8297C20.1711 12.6406 21.9688 9.45156 21.9688 6.34375C21.9688 4.72759 21.3267 3.17762 20.1839 2.03482C19.0411 0.892018 17.4912 0.25 15.875 0.25Z" fill="#FB5353"/>
</svg>
