<svg width="32" height="32" viewBox="0 0 32 32" fill="none" xmlns="http://www.w3.org/2000/svg">
<path d="M22 14.5C22 15.9834 21.5601 17.4334 20.736 18.6668C19.9119 19.9002 18.7406 20.8614 17.3701 21.4291C15.9997 21.9968 14.4917 22.1453 13.0368 21.8559C11.582 21.5665 10.2456 20.8522 9.19669 19.8033C8.1478 18.7544 7.43349 17.418 7.14411 15.9632C6.85472 14.5083 7.00324 13.0003 7.5709 11.6299C8.13856 10.2594 9.09985 9.0881 10.3332 8.26399C11.5666 7.43988 13.0166 7.00001 14.5 7.00001C16.4891 7.00001 18.3968 7.79019 19.8033 9.19671C21.2098 10.6032 22 12.5109 22 14.5ZM28.7 28.7125C28.5133 28.8963 28.262 28.9996 28 29C27.7345 28.9989 27.4795 28.896 27.2875 28.7125L21.8875 23.3C19.6132 25.2103 16.6893 26.1688 13.7255 25.9756C10.7617 25.7825 7.9869 24.4526 5.97981 22.2633C3.97271 20.074 2.88829 17.1944 2.95271 14.225C3.01714 11.2556 4.22543 8.42577 6.32559 6.32561C8.42576 4.22545 11.2556 3.01715 14.225 2.95273C17.1944 2.8883 20.074 3.97272 22.2633 5.97982C24.4526 7.98692 25.7824 10.7617 25.9756 13.7255C26.1688 16.6893 25.2102 19.6132 23.3 21.8875L28.7 27.2875C28.7945 27.3806 28.8695 27.4915 28.9207 27.6138C28.9719 27.7361 28.9983 27.8674 28.9983 28C28.9983 28.1326 28.9719 28.2639 28.9207 28.3862C28.8695 28.5085 28.7945 28.6195 28.7 28.7125ZM14.5 24C16.3789 24 18.2156 23.4428 19.7779 22.399C21.3402 21.3551 22.5578 19.8714 23.2768 18.1355C23.9959 16.3996 24.184 14.4895 23.8175 12.6467C23.4509 10.8038 22.5461 9.11109 21.2175 7.7825C19.8889 6.4539 18.1962 5.54911 16.3534 5.18255C14.5105 4.81599 12.6004 5.00412 10.8645 5.72316C9.1286 6.44219 7.64491 7.65983 6.60103 9.22209C5.55716 10.7844 5 12.6211 5 14.5C5.0033 17.0186 6.00525 19.433 7.78613 21.2139C9.56701 22.9948 11.9815 23.9967 14.5 24Z" fill="white"/>
</svg>
